<svg width="4" height="178" viewBox="0 0 4 178" fill="none" xmlns="http://www.w3.org/2000/svg">
<g clip-path="url(#clip0_235_4611)">
<path fill-rule="evenodd" clip-rule="evenodd" d="M3.87003 25.58H2.73003L2.73003 0.0100098L3.87003 0.0100098L3.87003 25.58Z" fill="#C3D4A5" fill-opacity="0.3"/>
<path fill-rule="evenodd" clip-rule="evenodd" d="M2.49002 25.58H1.35002L1.35002 0L2.49002 0L2.49002 25.58Z" fill="#C3D4A5" fill-opacity="0.3"/>
<path fill-rule="evenodd" clip-rule="evenodd" d="M3.87003 31.15H2.73003V28.67H3.87003V31.15Z" fill="#C3D4A5" fill-opacity="0.3"/>
<path fill-rule="evenodd" clip-rule="evenodd" d="M2.5 31.14H1.36L1.36 28.66H2.5V31.14Z" fill="#C3D4A5" fill-opacity="0.3"/>
<path fill-rule="evenodd" clip-rule="evenodd" d="M3.87003 36.55H2.73003V34.07H3.87003V36.55Z" fill="#C3D4A5" fill-opacity="0.3"/>
<path fill-rule="evenodd" clip-rule="evenodd" d="M2.5 36.56H1.36L1.36 34.08H2.5V36.56Z" fill="#C3D4A5" fill-opacity="0.3"/>
<path fill-rule="evenodd" clip-rule="evenodd" d="M3.87003 42H2.73003V39.52H3.87003V42Z" fill="#C3D4A5" fill-opacity="0.3"/>
<path fill-rule="evenodd" clip-rule="evenodd" d="M2.5 42.02H1.36L1.36 39.54H2.5V42.02Z" fill="#C3D4A5" fill-opacity="0.3"/>
<path fill-rule="evenodd" clip-rule="evenodd" d="M3.87003 47.45H2.73003V44.97H3.87003V47.45Z" fill="#C3D4A5" fill-opacity="0.3"/>
<path fill-rule="evenodd" clip-rule="evenodd" d="M2.5 47.44H1.36L1.36 44.96H2.5V47.44Z" fill="#C3D4A5" fill-opacity="0.3"/>
<path fill-rule="evenodd" clip-rule="evenodd" d="M3.87003 52.85H2.73003V50.37H3.87003V52.85Z" fill="#C3D4A5" fill-opacity="0.3"/>
<path fill-rule="evenodd" clip-rule="evenodd" d="M2.5 52.84H1.36L1.36 50.36H2.5V52.84Z" fill="#C3D4A5" fill-opacity="0.3"/>
<path fill-rule="evenodd" clip-rule="evenodd" d="M3.87003 58.25H2.73003V55.77H3.87003V58.25Z" fill="#C3D4A5" fill-opacity="0.3"/>
<path fill-rule="evenodd" clip-rule="evenodd" d="M2.5 58.27H1.36L1.36 55.79H2.5V58.27Z" fill="#C3D4A5" fill-opacity="0.3"/>
<path fill-rule="evenodd" clip-rule="evenodd" d="M3.87003 63.71H2.73003V61.23H3.87003V63.71Z" fill="#C3D4A5" fill-opacity="0.3"/>
<path fill-rule="evenodd" clip-rule="evenodd" d="M2.5 63.7H1.36L1.36 61.22H2.5V63.7Z" fill="#C3D4A5" fill-opacity="0.3"/>
<path fill-rule="evenodd" clip-rule="evenodd" d="M3.87003 69.14H2.73003V66.66H3.87003V69.14Z" fill="#C3D4A5" fill-opacity="0.3"/>
<path fill-rule="evenodd" clip-rule="evenodd" d="M2.5 69.13H1.36L1.36 66.65H2.5V69.13Z" fill="#C3D4A5" fill-opacity="0.3"/>
<path fill-rule="evenodd" clip-rule="evenodd" d="M3.89001 74.56H2.75001V72.08H3.89001V74.56Z" fill="#C3D4A5" fill-opacity="0.3"/>
<path fill-rule="evenodd" clip-rule="evenodd" d="M2.52002 74.56H1.38002L1.38002 72.08H2.52002V74.56Z" fill="#C3D4A5" fill-opacity="0.3"/>
<path fill-rule="evenodd" clip-rule="evenodd" d="M1.14001 74.55H1.45435e-05L1.45435e-05 72.07H1.14001L1.14001 74.55Z" fill="#C3D4A5" fill-opacity="0.3"/>
<path fill-rule="evenodd" clip-rule="evenodd" d="M3.87003 79.97H2.73003V77.48H3.87003V79.97Z" fill="#C3D4A5" fill-opacity="0.3"/>
<path fill-rule="evenodd" clip-rule="evenodd" d="M2.5 79.98H1.36L1.36 77.5H2.5V79.98Z" fill="#C3D4A5" fill-opacity="0.3"/>
<path fill-rule="evenodd" clip-rule="evenodd" d="M3.87003 85.4H2.73003V82.92H3.87003V85.4Z" fill="#C3D4A5" fill-opacity="0.3"/>
<path fill-rule="evenodd" clip-rule="evenodd" d="M2.5 85.41H1.36L1.36 82.93H2.5V85.41Z" fill="#C3D4A5" fill-opacity="0.3"/>
<path fill-rule="evenodd" clip-rule="evenodd" d="M3.87003 90.82H2.73003V88.34H3.87003V90.82Z" fill="#C3D4A5" fill-opacity="0.3"/>
<path fill-rule="evenodd" clip-rule="evenodd" d="M2.5 90.84H1.36L1.36 88.36H2.5V90.84Z" fill="#C3D4A5" fill-opacity="0.3"/>
<path fill-rule="evenodd" clip-rule="evenodd" d="M3.87003 96.25H2.73003V93.77H3.87003V96.25Z" fill="#C3D4A5" fill-opacity="0.3"/>
<path fill-rule="evenodd" clip-rule="evenodd" d="M2.5 96.27H1.36L1.36 93.78H2.5V96.27Z" fill="#C3D4A5" fill-opacity="0.3"/>
<path fill-rule="evenodd" clip-rule="evenodd" d="M3.87003 101.68H2.73003V99.2H3.87003V101.68Z" fill="#C3D4A5" fill-opacity="0.3"/>
<path fill-rule="evenodd" clip-rule="evenodd" d="M2.5 101.69H1.36L1.36 99.21H2.5V101.69Z" fill="#C3D4A5" fill-opacity="0.3"/>
<path fill-rule="evenodd" clip-rule="evenodd" d="M3.87003 107.11H2.73003V104.63H3.87003V107.11Z" fill="#C3D4A5" fill-opacity="0.3"/>
<path fill-rule="evenodd" clip-rule="evenodd" d="M2.5 107.12H1.36L1.36 104.64H2.5V107.12Z" fill="#C3D4A5" fill-opacity="0.3"/>
<path fill-rule="evenodd" clip-rule="evenodd" d="M3.87003 112.53H2.73003V110.05H3.87003V112.53Z" fill="#C3D4A5" fill-opacity="0.3"/>
<path fill-rule="evenodd" clip-rule="evenodd" d="M2.5 112.53H1.36L1.36 110.05H2.5V112.53Z" fill="#C3D4A5" fill-opacity="0.3"/>
<path fill-rule="evenodd" clip-rule="evenodd" d="M3.87003 117.96H2.73003V115.48H3.87003V117.96Z" fill="#C3D4A5" fill-opacity="0.3"/>
<path fill-rule="evenodd" clip-rule="evenodd" d="M2.5 117.98H1.36L1.36 115.5H2.5V117.98Z" fill="#C3D4A5" fill-opacity="0.3"/>
<path fill-rule="evenodd" clip-rule="evenodd" d="M3.87003 123.39H2.73003V120.91H3.87003V123.39Z" fill="#C3D4A5" fill-opacity="0.3"/>
<path fill-rule="evenodd" clip-rule="evenodd" d="M2.5 123.4H1.36L1.36 120.92H2.5V123.4Z" fill="#C3D4A5" fill-opacity="0.3"/>
<path fill-rule="evenodd" clip-rule="evenodd" d="M3.87003 128.83H2.73003V126.35H3.87003V128.83Z" fill="#C3D4A5" fill-opacity="0.3"/>
<path fill-rule="evenodd" clip-rule="evenodd" d="M2.5 128.83H1.36L1.36 126.34H2.5V128.83Z" fill="#C3D4A5" fill-opacity="0.3"/>
<path fill-rule="evenodd" clip-rule="evenodd" d="M3.87003 134.23H2.73003V131.75H3.87003V134.23Z" fill="#C3D4A5" fill-opacity="0.3"/>
<path fill-rule="evenodd" clip-rule="evenodd" d="M2.5 134.24H1.36L1.36 131.76H2.5V134.24Z" fill="#C3D4A5" fill-opacity="0.3"/>
<path fill-rule="evenodd" clip-rule="evenodd" d="M3.87003 139.72H2.73003V137.24H3.87003V139.72Z" fill="#C3D4A5" fill-opacity="0.3"/>
<path fill-rule="evenodd" clip-rule="evenodd" d="M2.5 139.72H1.36L1.36 137.24H2.5V139.72Z" fill="#C3D4A5" fill-opacity="0.3"/>
<path fill-rule="evenodd" clip-rule="evenodd" d="M3.87003 145.09H2.73003V142.61H3.87003V145.09Z" fill="#C3D4A5" fill-opacity="0.3"/>
<path fill-rule="evenodd" clip-rule="evenodd" d="M2.5 145.11H1.36L1.36 142.63H2.5V145.11Z" fill="#C3D4A5" fill-opacity="0.3"/>
<path fill-rule="evenodd" clip-rule="evenodd" d="M3.87003 150.54H2.73003V148.06H3.87003V150.54Z" fill="#C3D4A5" fill-opacity="0.3"/>
<path fill-rule="evenodd" clip-rule="evenodd" d="M2.5 150.53H1.36L1.36 148.05H2.5V150.53Z" fill="#C3D4A5" fill-opacity="0.3"/>
<path fill-rule="evenodd" clip-rule="evenodd" d="M3.87003 155.97H2.73003V153.49H3.87003V155.97Z" fill="#C3D4A5" fill-opacity="0.3"/>
<path fill-rule="evenodd" clip-rule="evenodd" d="M2.5 155.96H1.36L1.36 153.48H2.5V155.96Z" fill="#C3D4A5" fill-opacity="0.3"/>
<path fill-rule="evenodd" clip-rule="evenodd" d="M3.87003 161.41H2.73003V158.93H3.87003V161.41Z" fill="#C3D4A5" fill-opacity="0.3"/>
<path fill-rule="evenodd" clip-rule="evenodd" d="M2.5 161.43H1.36L1.36 158.94H2.5V161.43Z" fill="#C3D4A5" fill-opacity="0.3"/>
<path fill-rule="evenodd" clip-rule="evenodd" d="M3.87003 166.85H2.73003V164.37H3.87003V166.85Z" fill="#C3D4A5" fill-opacity="0.3"/>
<path fill-rule="evenodd" clip-rule="evenodd" d="M2.5 166.87H1.36L1.36 164.38H2.5V166.87Z" fill="#C3D4A5" fill-opacity="0.3"/>
<path fill-rule="evenodd" clip-rule="evenodd" d="M3.87003 172.25H2.73003V169.76H3.87003V172.25Z" fill="#C3D4A5" fill-opacity="0.3"/>
<path fill-rule="evenodd" clip-rule="evenodd" d="M3.87003 177.65H2.73003V175.17H3.87003V177.65Z" fill="#C3D4A5" fill-opacity="0.3"/>
</g>
<defs>
<clipPath id="clip0_235_4611">
<rect width="177.65" height="3.89" fill="white" transform="matrix(0 1 -1 0 3.89001 0)"/>
</clipPath>
</defs>
</svg>
