<svg width="18" height="18" viewBox="0 0 18 18" fill="none" xmlns="http://www.w3.org/2000/svg">
<path d="M5.625 2.25V3.375H12.375V2.25H5.625ZM12.375 3.375V4.5H13.5V3.375H12.375ZM13.5 4.5V5.625H14.625V4.5H13.5ZM14.625 5.625V12.375H15.75V5.625H14.625ZM14.625 12.375H13.5V13.5H14.625V12.375ZM13.5 13.5H12.375V14.625H13.5V13.5ZM12.375 14.625H5.625V15.75H12.375V14.625ZM5.625 14.625V13.5H4.5V14.625H5.625ZM4.5 13.5V12.375H3.375V13.5H4.5ZM3.375 12.375V5.625H2.25V12.375H3.375ZM3.375 5.625H4.5V4.5H3.375V5.625ZM4.5 4.5H5.625V3.375H4.5V4.5ZM8.4375 5.625V6.75H9.5625V5.625H8.4375ZM7.875 7.875V9H8.4375V12.375H10.125V11.25H9.5625V7.875H7.875Z" fill="#FCFC03"/>
</svg>
