<svg width="494" height="552" viewBox="0 0 494 552" fill="none" xmlns="http://www.w3.org/2000/svg">
<g clip-path="url(#clip0_234_151)">
<path d="M493.971 341.697L493.918 341.269L494 340.324L493.809 340.397L485.583 274.456L485.674 274.416L485.516 273.924L485.419 273.14L485.285 273.198L464.171 207.125L464.265 207.079L463.987 206.549L463.779 205.9L463.673 205.952L431.056 143.833L431.161 143.775L430.741 143.232L430.465 142.705L430.373 142.756L388.279 88.4066L388.408 88.3272L387.808 87.7985L387.495 87.3947L387.41 87.4475L338.422 44.2627L338.601 44.1413L337.753 43.6726L337.437 43.3941L337.353 43.4514L284.506 14.253L284.799 14.0371L283.563 13.7319L283.28 13.5758L283.192 13.6405L229.929 0.494563L230.559 0L228.563 0.157182L228.363 0.10761L228.271 0.180186L178.427 4.10646L180.936 2.04763L176.293 4.2746L176.211 4.28105L176.115 4.35999L130.458 26.2584L130.339 26.3584L130.325 26.3442L94.4747 56.345L91.7967 58.5842L92.8044 56.8406L89.0718 60.847L89.0029 60.8803L88.9582 60.9573L85.1154 64.1705L86.6786 63.4159L54.0561 98.432L53.9741 98.4997L53.9227 98.6149L31.6019 139.62L31.7174 138.704L30.0171 142.514L29.9494 142.587L29.9382 142.676L27.5716 147.02L28.4095 146.117L9.41325 188.686L9.40278 188.858L9.36486 188.854L1.30189 244.056L1.25839 244.123L1.27165 244.276L0.862303 247.065L1.20319 246.54L0.773509 260.139L0.310875 274.654L0 274.117L0.236043 276.867L0.214559 277.015L0.254732 277.084L4.31681 324.393L3.79316 323.884L4.45128 326.097L4.46803 326.154L4.48292 326.327L4.53441 326.377L17.7133 370.694L19.0254 375.106L18.7936 375.08L19.1777 375.818L19.3165 376.085L19.4193 376.431L19.7039 377.388L19.8614 377.132L41.9775 419.621L43.1127 421.802L42.7222 421.73L43.5505 422.77L43.7427 423.012L44.3547 424.188L44.4627 423.916L74.5739 461.726L75.8322 463.306L75.8455 463.378L75.9727 463.483L77.5181 465.423L77.3722 464.638L113.455 494.428L113.49 494.503L113.625 494.568L115.733 496.308L115.523 495.858L139.734 512.38L138.833 512.328L141.639 513.685L141.739 513.768L141.82 513.773L191.205 537.668L191.383 537.689L191.379 537.723L236.677 545.201L236.161 545.294L240.235 545.794L240.325 545.842L240.446 545.821L244.095 546.427L243.713 546.221L290.616 551.98L290.74 552L290.843 551.972L299.716 550.36L337.562 543.483L336.793 543.961L340.79 542.904L340.891 542.913L340.97 542.864L345.429 542.054L344.373 541.956L393.245 529.033L436.607 501.93L436.732 501.896L436.795 501.813L440.395 499.562L437.998 500.225L468.915 459.428L469.026 459.394L469.101 459.183L470.221 457.704L469.551 457.907L488.3 404.757L488.401 404.723L488.43 404.389L488.838 403.232L488.521 403.339L493.878 341.733L493.971 341.697ZM492.558 342.238L487.208 403.783L433.784 421.82L439.296 362.612L492.558 342.238ZM392.849 527.813L353.848 534.864L383.004 516.752L432.317 503.117L392.849 527.813ZM171.983 7.75268L133.364 39.4649L108.855 51.2966L131.116 27.3545L171.983 7.75268ZM226.465 1.60015L183.788 35.1399L135.692 39.1989L176.708 5.51926L226.465 1.60015ZM228.66 1.49254L281.859 14.6227L236.86 47.7658L185.457 35.4457L204.148 20.7566L228.66 1.49254ZM336.172 44.2532L289.143 76.173L238.18 48.3731L283.378 15.0839L336.172 44.2532ZM386.278 88.1457L337.416 118.279L290.218 76.9811L337.336 45.0004L386.278 88.1457ZM378.768 171.33L338.287 119.236L387.19 89.078L429.247 143.379L378.768 171.33ZM433.561 295.678L431.32 296.652L411.22 233.196L463.018 207.693L484.113 273.707L433.561 295.678ZM443.914 359.483L439.233 361.273L431.615 297.912L484.368 274.983L492.587 340.864L443.914 359.483ZM377.495 531.882L340.624 541.633L305.808 547.959L341.503 538.387L377.495 531.882ZM240.534 544.549L218.228 540.866L235.817 542.924L235.943 542.985L236.038 542.957L260.473 546.997L240.534 544.549ZM114.374 493.537L83.8695 468.352L94.7483 475.037L95.1326 475.274L95.2843 475.464L95.3643 475.458L119.95 495.768L130.891 504.807L114.374 493.537ZM45.832 423.595L55.3187 425.334L55.4239 425.536L55.5164 425.506L80.4411 456.817L92.8141 472.361L76.8548 462.549L45.832 423.595ZM5.73986 325.973L7.47126 308.317L24.7788 366.465L24.6963 366.522L24.7891 366.701L20.1115 374.301L5.73986 325.973ZM1.51029 276.907L2.20353 255.067L2.46128 258.052L6.49901 304.812L6.44582 304.872L6.51103 305.091L5.1371 319.102L1.51029 276.907ZM31.112 143.175L47.3768 113.298L31.0265 149.972L30.9507 150.032L30.9316 150.165L16.3369 176.288L31.112 143.175ZM89.862 61.8576L123.358 33.8326L94.2178 65.1794L61.6532 92.1419L89.862 61.8576ZM413.659 474.667L352.639 476.847L369.559 431.183L432.112 423.494L413.659 474.667ZM379.764 246.269L350.019 259.939L322.144 206.722L378.35 173.042L409.574 232.568L379.764 246.269ZM284.888 527.585L243.125 507.107L261.937 495.83L321.715 514.129L306.459 523.473L296.536 529.551L284.888 527.585ZM26.3427 366.931L49.173 351.166L51.4985 355.63L82.5937 415.319L56.053 423.992L26.3427 366.931ZM28.3418 282.008L48.6486 349.927L48.5545 349.979L48.5806 350.029L25.8784 365.706L7.86519 305.186L28.3418 282.008ZM79.7156 101.066L80.6874 100.589L100.481 90.8813L81.3527 149.951L66.3463 157.476L71.6891 119.252L79.7156 101.066ZM23.4522 211.034L32.1355 150.716L70.2239 120.559L61.4541 183.298L23.6128 210.917L23.4522 211.034ZM241.764 506.439L227.421 499.407L190.726 468.827L202.498 461.952L260.593 495.151L245.344 504.293L241.764 506.439ZM180.649 514.631L129.59 472.323L155.517 462.174L172.688 455.452L225.788 499.7L180.649 514.631ZM29.3682 281.005L68.1999 255.829L89.6419 327.049L49.7852 349.292L29.3682 281.005ZM194.471 97.2887L240.119 121.79L195.892 174.641L158.557 154.945L185.619 111.499L194.471 97.2887ZM321.061 207.394L348.855 260.458L285.229 288.039L268.1 255.31L262.567 244.738L298.503 221.796L321.061 207.394ZM368.526 429.935L300.695 426.891L305.354 383.94L373.826 377.16L368.526 429.935ZM126.58 395.373L113.954 371.158L147.928 414.292L144.285 416.357L143.544 416.777L126.58 395.373ZM102.023 90.2447L145.663 86.1926L118.323 145.99L82.78 149.668L102.023 90.2447ZM261.696 494.316L239.359 481.551L203.463 461.038L219.614 441.316L284.384 465.924L261.696 494.316ZM90.9891 327.116L80.214 291.327L81.5391 290.624L83.0202 289.837L98.9977 342.475L90.9891 327.116ZM260.813 244.371L203.661 283.079L203.652 283.06L203.551 283.133L182.751 256.696L231.426 206.853L260.813 244.371ZM102.175 348.569L84.2302 289.448L96.3336 287.893L102.871 349.904L102.175 348.569ZM156.56 234.236L156.491 234.178L156.416 234.326L153.26 232.691L130.222 220.758L134.822 210.034L157.968 156.074L195.133 175.679L156.56 234.236ZM244.351 304.769L220.164 314.66L217.954 310.431L204.254 284.214L261.501 245.442L284.053 288.533L244.351 304.769ZM108.89 358.472L163.142 357.122L164.707 373.026L158.61 371.436L108.89 358.472ZM104.345 351.767L97.6196 287.972L110.543 290.552L104.345 351.767ZM181.014 256.727L138.638 307.37L138.59 307.309L138.499 307.44L126.253 297.116L156.898 236.196L181.014 256.727ZM107.232 354.909L138.657 309.447L148.951 322.486L107.232 354.909ZM155.844 235.463L125.254 296.273L125.163 296.197L125.099 296.381L111.978 289.706L129.817 221.981L155.844 235.463ZM102.388 216.018L128.62 221.537L110.82 289.117L110.695 289.053L110.672 289.28L97.5691 286.664L100.621 241.928L102.388 216.018ZM150.071 321.651L150.058 321.627L149.955 321.706L146.375 317.171L139.443 308.389L181.891 257.66L202.518 283.877L150.071 321.651ZM158.707 338.191L154.273 329.698L150.666 322.79L194.739 291.048L203.205 284.95L218.976 315.129L194.261 324.586L158.707 338.191ZM149.636 323.565L157.503 338.63L144.876 343.06L107.83 356.055L149.636 323.565ZM232.924 381.763L215.676 379.583L166.011 373.304L164.415 357.09L164.567 357.086L164.546 357.018L229.603 349.727L232.924 381.763ZM164.108 389.624L165.969 374.671L166.149 374.718L166.138 374.603L232.935 383.047L229.465 412.834L164.108 389.624ZM234.212 381.865L230.866 349.585L231.001 349.57L230.985 349.519L299.058 336.885L304.068 382.712L234.212 381.865ZM105.535 352.63L111.772 291.029L124.677 297.594L105.535 352.63ZM106.495 353.739L125.756 298.36L137.772 308.491L106.495 353.739ZM157.992 339.808L162.865 355.856L108.382 357.211L157.992 339.808ZM109.243 359.879L164.728 374.348L162.899 389.049L111.35 361.025L109.243 359.879ZM162.611 390.341L157.528 402.845L109.297 361.357L162.611 390.341ZM202.418 460.306L149.775 414.412L157.923 404.727L218.452 440.728L212.247 448.305L202.418 460.306ZM229.336 348.476L164.17 355.78L159.192 339.387L159.31 339.345L159.3 339.327L219.462 316.306L229.336 348.476ZM129.027 220.321L102.579 214.758L119.217 147.341L156.769 155.645L129.027 220.321ZM101.118 215.965L96.2989 286.614L94.3671 286.862L83.9647 288.199L76.4319 218.814L96.0455 216.55L101.118 215.965ZM153.68 407.795L148.902 413.474L110.784 365.079L110.061 363.693L156.892 403.976L153.68 407.795ZM206.768 432.299L158.579 403.636L163.734 390.952L163.929 391.058L163.947 390.918L229.171 414.081L219.096 439.631L206.768 432.299ZM299.434 426.738L230.703 413.19L234.203 383.138L304.071 383.985L300.75 414.604L299.434 426.738ZM101.293 214.663L76.4352 217.532L82.46 150.981L117.915 147.312L101.293 214.663ZM230.61 348.294L223.856 326.289L220.652 315.851L220.764 315.808L220.756 315.793L284.539 289.709L298.796 335.639L230.61 348.294ZM230.55 205.929L181.958 255.688L181.921 255.642L181.83 255.751L157.755 235.254L157.535 235.067L168.531 218.373L196.183 176.396L230.55 205.929ZM75.1309 217.848L66.2353 222.435L62.6853 183.668L66.1323 159.007L81.139 151.482L75.1309 217.848ZM75.2003 219.244L82.7255 288.552L79.84 290.085L69.191 254.714L66.3603 223.803L75.2003 219.244ZM148.808 415.256L201.409 461.114L197.992 463.11L189.686 467.961L173.263 454.275L144.344 417.786L148.808 415.256ZM285.059 464.818L231.236 444.371L220.24 440.193L227.901 420.767L230.4 414.428L299.127 427.976L285.505 463.65L285.059 464.818ZM300.307 336.614L367.341 319.421L373.831 375.88L305.341 382.661L300.307 336.614ZM157.355 154.471L119.654 146.134L147.06 86.1943L193.236 96.8662L157.355 154.471ZM50.253 350.489L90.1369 328.23L125.175 395.427L83.786 414.857L50.253 350.489ZM367.082 318.173L300.042 335.368L289.201 300.44L285.72 289.226L285.828 289.182L285.821 289.169L349.341 261.635L354.196 277.106L367.082 318.173ZM231.472 205.045L196.94 175.37L241.181 122.503L283.371 159.102L231.472 205.045ZM61.5155 184.828L67.8961 254.51L29.1628 279.622L23.2726 212.741L61.5155 184.828ZM84.5024 415.926L116.609 400.855L125.86 396.512L171.774 454.443L128.557 471.36L84.5024 415.926ZM262.934 494.804L285.685 466.332L350.562 477.957L323.02 513.197L266.445 495.879L262.934 494.804ZM351.303 476.797L286.293 465.147L300.42 428.153L368.199 431.194L357.646 459.676L351.303 476.797ZM320.371 206.325L261.975 243.607L261.966 243.589L261.868 243.656L232.348 205.968L284.251 160.022L288.37 165.301L320.371 206.325ZM182.202 515.459L195.74 510.98L227.028 500.631L282.935 528.044L236.058 541.626L182.202 515.459ZM369.81 429.869L375.121 376.971L437.986 362.97L432.475 422.167L369.81 429.869ZM241.009 120.823L195.258 96.2675L237.137 49.2539L288.099 77.0525L241.009 120.823ZM146.36 84.8493L102.794 88.8941L104.332 86.5206L134.071 40.6132L182.669 36.5118L146.36 84.8493ZM101.111 89.155L80.5138 99.2573L95.1987 65.9843L106.471 53.861L131.939 41.5656L101.111 89.155ZM56.8061 425.085L70.5979 420.578L83.1902 416.464L83.2226 416.526L83.3194 416.481L107.618 447.055L127.113 471.586L95.8556 474.14L56.8061 425.085ZM97.1826 475.309L128.066 472.786L128.147 472.888L128.235 472.853L178.617 514.6L142.227 512.521L97.1826 475.309ZM298.446 529.873L323.42 514.577L380.643 516.721L350.447 535.479L341.372 537.12L298.446 529.873ZM438 361.662L375.086 375.675L368.58 319.064L430.39 298.368L431.869 310.67L438 361.662ZM430.133 297.112L368.301 317.814L350.51 261.114L410.061 233.745L412.31 240.846L430.133 297.112ZM377.657 171.973L321.457 205.65L285.235 159.216L290.517 155.227L337.233 119.952L367.735 159.204L377.657 171.973ZM336.343 119.03L284.364 158.279L242.06 121.582L267.742 97.7103L289.192 77.7735L331.532 114.821L336.343 119.03ZM235.816 48.8243L194.023 95.7416L147.794 85.0569L184.287 36.4745L212.6 43.2602L235.816 48.8243ZM92.9859 67.8509L70.555 118.674L33.1775 148.269L55.0126 99.2916L92.9859 67.8509ZM22.1371 214.329L27.9562 280.404L27.8775 280.455L27.9128 280.573L14.2093 296.084L7.66078 303.497L2.5617 244.45L22.1371 214.329ZM238.875 542.135L281.658 529.74L284.73 528.85L338.383 537.906L290.676 550.7L238.875 542.135ZM382.444 515.514L324.52 513.344L352.031 478.143L412.784 475.973L388.689 507.375L382.444 515.514ZM10.6049 189.154L30.4258 153.677L22.0176 212.081L21.9438 212.135L21.9561 212.274L2.95788 241.508L10.6049 189.154ZM20.6379 375.871L25.4732 368.014L37.5226 391.156L54.5738 423.904L44.6968 422.093L20.6379 375.871ZM145.134 513.962L180.27 515.97L180.38 516.061L180.469 516.031L232.345 541.237L191.662 536.475L145.134 513.962ZM410.724 232.021L379.452 172.406L412.034 154.365L429.944 144.448L462.532 206.513L410.724 232.021ZM384.407 515.043L414.49 475.839L466.848 460.051L435.98 500.783L384.407 515.043ZM415.138 474.314L433.554 423.242L486.771 405.273L468.043 458.361L415.138 474.314Z" fill="#C3D4A5" fill-opacity="0.3"/>
</g>
<defs>
<clipPath id="clip0_234_151">
<rect width="494" height="552" fill="white"/>
</clipPath>
</defs>
</svg>
