<svg width="16" height="16" viewBox="0 0 16 16" fill="none" xmlns="http://www.w3.org/2000/svg">
<path d="M6.3125 0.6875V1.8125H11.9375V0.6875H6.3125ZM11.9375 1.8125V2.9375H13.0625V1.8125H11.9375ZM13.0625 2.9375V4.0625H14.1875V2.9375H13.0625ZM14.1875 4.0625V9.6875H15.3125V4.0625H14.1875ZM14.1875 9.6875H13.0625V6.3125H11.9375V11.9375H13.0625V10.8125H14.1875V9.6875ZM11.9375 11.9375H10.8125V13.0625H11.9375V11.9375ZM10.8125 13.0625H9.6875V14.1875H10.8125V13.0625ZM9.6875 14.1875H4.0625V15.3125H9.6875V14.1875ZM4.0625 14.1875V13.0625H2.9375V14.1875H4.0625ZM2.9375 13.0625V11.9375H1.8125V13.0625H2.9375ZM1.8125 11.9375V6.3125H0.6875V11.9375H1.8125ZM1.8125 6.3125H2.9375V5.1875H1.8125V6.3125ZM2.9375 5.1875H4.0625V4.0625H2.9375V5.1875ZM4.0625 4.0625H9.6875V2.9375H6.3125V1.8125H5.1875V2.9375H4.0625V4.0625ZM9.6875 4.0625V5.1875H10.8125V4.0625H9.6875ZM10.8125 5.1875V6.3125H11.9375V5.1875H10.8125ZM5.1875 5.75V9.125H8V8H6.3125V6.875H8.5625V5.75H5.1875ZM8 9.125V11.375H9.125V9.125H8ZM8 11.375H5.1875V12.5H8V11.375Z" fill="black"/>
</svg>
