<svg width="33" height="24" viewBox="0 0 33 24" fill="none" xmlns="http://www.w3.org/2000/svg">
<path d="M0.666667 0.666667H22.3969L32.3333 10.2826V23.3333H9.66756L0.666668 11.2786L0.666667 0.666667Z" fill="black" stroke="#FCFC03" stroke-width="1.33333"/>
<path d="M32.3333 5.77311L26.9948 0.666667H32.3333V5.77311Z" fill="#FCFC03" fill-opacity="0.7" stroke="#FCFC03" stroke-width="1.33333"/>
<path d="M0.666666 16.1149L5.71956 23.3333L0.666667 23.3333L0.666666 16.1149Z" fill="#FCFC03" fill-opacity="0.7" stroke="#FCFC03" stroke-width="1.33333"/>
<path fill-rule="evenodd" clip-rule="evenodd" d="M13 5H11V17H13V5ZM10 9H8V14H10V9ZM14 7H16V15H14V7ZM19 6H17V17H19V6ZM20 10H22V13H20V10ZM25 8H23V15H25V8Z" fill="#FCFC03"/>
</svg>
